<svg width="25" height="25" viewBox="0 0 25 25" fill="none" xmlns="http://www.w3.org/2000/svg">
<mask id="mask0_1912_1380" style="mask-type:alpha" maskUnits="userSpaceOnUse" x="0" y="0" width="25" height="25">
<rect x="0.796463" y="0.744553" width="24" height="24" fill="#D9D9D9"/>
</mask>
<g mask="url(#mask0_1912_1380)">
<path d="M5.79646 21.7446C5.24646 21.7446 4.77563 21.5487 4.38396 21.1571C3.9923 20.7654 3.79646 20.2946 3.79646 19.7446V5.74455C3.79646 5.19455 3.9923 4.72372 4.38396 4.33205C4.77563 3.94039 5.24646 3.74455 5.79646 3.74455H19.7965C20.3465 3.74455 20.8173 3.94039 21.209 4.33205C21.6006 4.72372 21.7965 5.19455 21.7965 5.74455V19.7446C21.7965 20.2946 21.6006 20.7654 21.209 21.1571C20.8173 21.5487 20.3465 21.7446 19.7965 21.7446H5.79646ZM5.79646 19.7446H19.7965V5.74455H5.79646V19.7446Z" fill="white"/>
</g>
</svg>
