<svg width="25" height="25" viewBox="0 0 25 25" fill="none" xmlns="http://www.w3.org/2000/svg">
<mask id="mask0_1911_1374" style="mask-type:alpha" maskUnits="userSpaceOnUse" x="0" y="0" width="25" height="25">
<rect x="0.796463" y="0.744553" width="24" height="24" fill="#D9D9D9"/>
</mask>
<g mask="url(#mask0_1911_1374)">
<path d="M12.7965 6.74455C12.2465 6.74455 11.7756 6.54872 11.384 6.15705C10.9923 5.76539 10.7965 5.29455 10.7965 4.74455C10.7965 4.19455 10.9923 3.72372 11.384 3.33205C11.7756 2.94039 12.2465 2.74455 12.7965 2.74455C13.3465 2.74455 13.8173 2.94039 14.209 3.33205C14.6006 3.72372 14.7965 4.19455 14.7965 4.74455C14.7965 5.29455 14.6006 5.76539 14.209 6.15705C13.8173 6.54872 13.3465 6.74455 12.7965 6.74455ZM9.79646 22.7446V9.74455H3.79646V7.74455H21.7965V9.74455H15.7965V22.7446H13.7965V16.7446H11.7965V22.7446H9.79646Z" fill="white"/>
</g>
</svg>
